<svg xmlns="http://www.w3.org/2000/svg" xmlns:xlink="http://www.w3.org/1999/xlink" id="TextArea" x="0px" y="0px" viewBox="0 0 108 108" style="enable-background:new 0 0 108 108;" xml:space="preserve"> <style type="text/css"> .st0{fill:#FFFFFF;} .st1{fill:#3E3C38;} .st2{fill:#272727;} </style> <rect x="-1" y="-1" class="st0" width="110" height="110"></rect> <g> <g> <path class="st1" d="M38.5,89.1c0.7,0,1.2,0.2,1.6,0.6c0,0,0,0.1,0,0.2l-0.5,0.5c0,0-0.1,0-0.1,0c-0.2-0.2-0.6-0.3-0.9-0.3 c-0.8,0-1.3,0.6-1.3,1.4c0,0.7,0.6,1.4,1.3,1.4c0.3,0,0.6-0.1,0.9-0.3c0,0,0.1,0,0.2,0l0.5,0.5c0,0,0,0.1,0,0.2 c-0.4,0.4-1,0.6-1.6,0.6c-1.4,0-2.4-1.1-2.4-2.4C36.1,90.2,37.2,89.1,38.5,89.1z"></path> <path class="st1" d="M42.5,89.3c0,0,0-0.1,0.1-0.1h0.8c0.1,0,0.1,0,0.1,0.1V91h1.9v-1.7c0,0,0-0.1,0.1-0.1h0.8c0,0,0.1,0,0.1,0.1 v4.4c0,0,0,0.1-0.1,0.1h-0.8c-0.1,0-0.1,0-0.1-0.1V92h-1.9v1.7c0,0,0,0.1-0.1,0.1h-0.8c0,0-0.1,0-0.1-0.1V89.3z"></path> <path class="st1" d="M49.2,89.3c0,0,0-0.1,0.1-0.1h0.8c0.1,0,0.1,0,0.1,0.1V92c0,0.5,0.3,0.8,0.8,0.8s0.8-0.4,0.8-0.8v-2.7 c0,0,0-0.1,0.1-0.1h0.8c0,0,0.1,0,0.1,0.1v2.8c0,1-0.9,1.8-1.9,1.8c-1.1,0-1.9-0.8-1.9-1.8L49.2,89.3L49.2,89.3z"></path> <path class="st1" d="M55.6,89.3c0,0,0-0.1,0.1-0.1h2c0.8,0,1.4,0.6,1.4,1.4c0,0.6-0.4,1.1-1,1.4l0.9,1.7c0,0.1,0,0.2-0.1,0.2h-0.9 c0,0-0.1,0-0.1,0l-0.9-1.7h-0.4v1.7c0,0,0,0.1-0.1,0.1h-0.8c-0.1,0-0.1,0-0.1-0.1L55.6,89.3L55.6,89.3z M57.7,91.2 c0.3,0,0.5-0.2,0.5-0.5s-0.2-0.5-0.5-0.5h-1v1H57.7z"></path> <path class="st1" d="M63.7,89.1c0.7,0,1.2,0.2,1.6,0.6c0,0,0,0.1,0,0.2l-0.5,0.5c0,0-0.1,0-0.1,0c-0.2-0.2-0.6-0.3-0.9-0.3 c-0.8,0-1.3,0.6-1.3,1.4c0,0.7,0.6,1.4,1.3,1.4c0.3,0,0.6-0.1,0.9-0.3c0,0,0.1,0,0.2,0l0.5,0.5c0,0,0,0.1,0,0.2 c-0.4,0.4-1,0.6-1.6,0.6c-1.4,0-2.4-1.1-2.4-2.4C61.3,90.2,62.4,89.1,63.7,89.1z"></path> <path class="st1" d="M67.7,89.3c0,0,0-0.1,0.1-0.1h0.8c0.1,0,0.1,0,0.1,0.1V91h1.9v-1.7c0,0,0-0.1,0.1-0.1h0.8c0,0,0.1,0,0.1,0.1 v4.4c0,0,0,0.1-0.1,0.1h-0.8c-0.1,0-0.1,0-0.1-0.1V92h-1.9v1.7c0,0,0,0.1-0.1,0.1h-0.8c0,0-0.1,0-0.1-0.1V89.3z"></path> </g> <g> <g> <g> <g> <path class="st2" d="M81.5,69.7c-0.9,1.7-2,3.4-2.9,5.1c-0.5,0.8-1.3,1.1-2.4,1.1c-4.9-2.4,0.2-17.6,0.2-18.2 c-2.1,0.5-3.8,1.3-5.7,2.3c-1.4,7.4-1.9,15-2.3,22.7c0,0.5-0.8,0.4-1.8,0.4c-2.3,0.1-2.4-3-2.4-4.6c0-5.2,0.4-10.3,0.6-15.5 c-0.2,0.5-0.8,0.9-1.4,0.9c-0.6,0-1.1-0.5-1.1-1.1c0-0.2,0.1-0.5,0.2-0.7c0.8-1.6,2.5-2.2,3.5-3.5c0.2-1.3,0-1.9,0.2-3.1 c0.2-1.2,0-2.5,1.2-3.6c0.5-0.1,0.7-0.6,1.9-0.6c1.7,0.2,1.5,0.5,1.5,1.2c0,1.4,0,2.7,0,4.2c1.8-0.4,3.7-0.9,5.6-1.3 c1.4-0.3,3.4-1.3,4.1,0.6c0.2,0.6,0.1,1.3,0,2c-0.3,2.8-0.7,5.6-1.1,8.5c4-6.7,6.3-10.5,9.5-17.6c0.4-0.9,1.2-4.2,2.6-3.7 c0.8,0.3,2.5,0.3,2.2,1.5c-1.4,5.5-1.7,7.8-3.3,13.2c-1.6,5.6-3.1,11.3-4.7,17c-1.1,4-2.3,8.1-2.8,12.2 c-0.2,1.2,0.1,2.8-0.6,3.9c-0.9,1.5-3.1,0.8-3.7-0.7c-0.4-1-0.3-2-0.1-3c1-7,3-13.9,4.8-20.7c0.3-1.1,0.5-2.1,0.7-3.1 C83.9,65,82.3,68.1,81.5,69.7z"></path> <path class="st2" d="M41.7,80c0.7,0.4,3.1-2.5,4.1-4.1c2.4-4.2,4.7-8.5,7.1-12.7c1.2-2,2.3-4.1,3.6-5.9 c1.2-1.6,2.5-1.5,4.1-0.4c0.6,0.3-0.4,3.7-0.6,5.6c-0.3,2.4-0.6,4.8-0.8,7.2c-0.3,2.8-0.6,5.5-0.8,8.3c-0.1,1.5,0,3.1,0,4.8 c0.1,0.8-1.4,0.8-2.1,0.7c-3.1-0.1-2.4-4.1-2.2-6.1c0.4-3.9,0.8-7.7,1.3-11.6c0-0.2-0.1-0.6-0.3-0.6c-0.1,0-0.1,0.1-0.2,0.2 c-1.2,1.5-1.7,3.5-2.5,5.2c-1.2,2.6-2.4,5.3-4,7.7c-1.9,2.7-4.5,5.2-8.1,4.1c-2.8-2-3.1-4.9-2.8-7.7c0.5-4.2,1.4-8.4,3-12.4 c1.4-3.7,3.4-8.4,7.7-9.3c1.6-0.3,3.2,0,4.5,1.4c0.4,0.4-1.2,1.9-1.9,1.5c-0.3-0.1-0.7-0.3-1-0.4c-0.4,0-0.8,0.2-1.1,0.4 c-1.5,1-2.5,2.5-3.4,4.1c-1.5,2.9-3.7,11.4-3.9,12.6C40.9,75.1,40.2,79.4,41.7,80z"></path> <path class="st2" d="M61.6,53.6c-0.9,0.8-2.7,0.3-3.4-1.3c-0.1-0.8,0.5-1.1,0.9-1.4c0.8-0.6,1-0.4,1.9-0.1 C61.9,51.3,62.8,52.6,61.6,53.6z"></path> </g> <path class="st2" d="M23.3,44.2c-0.1-0.1-0.2-0.3-0.4-0.5c-0.5-0.5-1.3-0.8-1.1-1.7c0.1-0.6,0.8-0.9,1.1-1.5 c0.2-0.4,0.2-1,0.1-1.4c-0.2-2.9-0.5-5.8-0.7-8.7c-2,1.1-4.1,2.2-6.1,3.3c-0.4,0.2-0.8,0.4-1.2,0.3c-0.8-0.1-1.2-1.2-0.9-2 c0.3-0.8,1.1-1.3,1.7-1.8c1.4-1,2.9-1.9,4.4-2.9c0.5-0.3,1.1-0.7,1.4-1.3c0.4-0.6,0.5-1.4,0.6-2.2c0.3-3.1,0.7-4,1.2-7.1 c0.1-0.6,0.2-1.2,0.5-1.6c0.5-0.6,1.4-0.9,2.2-1c0.4,0,0.9,0,1.1,0.2c0.1,0.2,0.1,0.5,0.1,0.7c-0.1,3.2-0.2,4.1-0.3,7.3 c3.9-1.7,7.8-3.3,12-3.9c1.5-0.2,3.1-0.3,4.5,0.3c0.3,0.1,0.7,0.4,0.9,0.7c0.5,0.6,0.4,1.5,0.2,2.3c-1,4.6-4.6,8.1-8.1,11.3 c-2.8,2.7-5.7,5.3-8.6,7.9c-0.2,0.2-0.4,0.4-0.3,0.7c0,0.2,0.3,0.3,0.5,0.4c1,0.3,2,0.4,3.1,0.4c1.7,0,3.5,0.1,5.3,0.2 c1.6,0,3.5,0.4,5.2,0.1c-0.5-2.7-0.3-5.1,0.1-7.8c0.4-2.4,1-5.3,2.8-7.1c0.7-0.7,2.2-1.8,5.6-0.6c5.6-1.1,8.7-1.7,14.1-2.8 c0.9-0.1,0.7,2.3,0.5,2.4c-5.1,2-5.6,8.1-6.2,12.9c-0.1,0.8-0.1,1.8,0.6,2.2c0.5,0.2,1.1,0,1.4-0.2c1.4-1.2,2.7-3.6,3.6-5.2 c1.2-1.9,2.1-4,2.8-6.1c0.3-1,0.6-2,0.7-3.1c0.5-2.9,1-5.7,1.6-8.9c-0.1-0.7,0.5-1.4,2.1-1.1c1.1,0.2,1.1,0.9,0.9,1.6 c-0.3,3.9-0.6,8-0.9,11.9c2.3-2,6.3-6.1,7.1-5.8c1.4,0.6,1.2,1.6,0.3,2.6c-1.1,1.3-2.2,2.5-3.2,3.7c-1.1,1.4-3.1,2.8-4,4.9 c1.1-0.3,18.8-5.8,19-5.3c0.9,0.2,1.3,1.8,0.5,2.2c-3.2,1.7-16.7,5.5-20.3,6.7c-0.1,2.1-0.2,4.4-0.3,6.9 c-0.2,0.8-1.4,0.5-1.9,0.6c-1.9,0-1.8-1.5-1.8-3c0-1.9,0.1-3.8,0.2-5.7c0-0.5,0.1-1.1,0.1-1.8c-0.3,0.6-1.1,1.5-1.4,2.1 c-1.2,1.8-2.1,3.9-4,5.1c-0.7,0.4-1.4,0.9-2.2,1c-0.6,0.1-1.5,0-1.9-0.4c-2.1-2-2.3-4.7-1.9-7.5c0.3-2.8,1.2-5.5,2.2-8 c0-0.2,0.2-0.5,0.5-0.9c-2.2,0.3-4.7,0.5-6.8,1.5c0.1,1.2,0.2,2.3,0.4,3.4c0.4,3.5-0.1,6.9-1.7,10c-0.6,1.2-2,3-4,2.9 c-1.7,0-2.3-0.5-3.2-1.1c-9.5,0.4-10.2,0-15.2-0.5c-0.1,0.3,0.2,1.5,0.3,1.7c0.2,1.8,0.5,3.7,0.7,5.5c0.1,1.3,0.2,2.6,0.3,3.9 c0,0.5-0.1,1-0.4,1.4c-0.9,0.2-1.4,0.5-2.4,0c-1-2-1.5-4.1-1.8-6.4c-0.2-1.8-0.6-3.5-0.9-5.3C23.6,44.8,23.5,44.5,23.3,44.2z M42,21.4c-0.1-2.1-10.5,2.2-14.8,5.3c-0.4,1.9-0.2,9.1,0.3,10.5c0.3-0.2,0.6-0.3,0.8-0.5c2.2-2,4.5-4,6.6-6.2 S42.6,22.3,42,21.4z M47.6,30.6c-2.2-0.1-4.5,12.5-1,12.6C48.8,43.3,50.7,30.7,47.6,30.6z"></path> </g> </g> </g> </g> </svg>